<svg width="256" height="256" viewBox="0 0 256 256" fill="none" xmlns="http://www.w3.org/2000/svg">
<rect width="256" height="256" rx="20" fill="#76C893"/>
<path fill-rule="evenodd" clip-rule="evenodd" d="M86.0856 48.9548L32.5391 41.4033V91.1055H40.8605V105.899H32.5391V204.226L84.7944 211.595C99.348 213.648 112.898 220.192 123.554 230.315C125.919 232.562 129.629 232.562 131.994 230.315C142.65 220.192 156.2 213.648 170.753 211.595L223.009 204.226V131.788L210.433 133.926L210 196.192L169.462 202.44C153.965 204.625 139.474 211.314 127.774 221.644C116.074 211.314 101.583 204.625 86.0856 202.44L45 196.192L44.1133 85.5577H39.0113V74.4623H44.0243L43.8613 54.121L84.7944 58.1103C99.348 60.1627 112.898 66.7069 123.554 76.8299C125.919 79.0765 129.629 79.0765 131.994 76.8299C142.65 66.7069 156.2 60.1627 170.753 58.1103L210.989 54.121L210.946 60.1898L210.989 56.895L223.009 54.1212V41.4033L169.462 48.9548C153.965 51.1402 139.474 57.8289 127.774 68.159C116.074 57.8289 101.583 51.1402 86.0856 48.9548Z" fill="#1D3557"/>
<path d="M227.575 106.63C227.457 105.909 227.313 105.184 227.102 104.467C226.89 103.749 226.616 103.062 226.324 102.393L229.859 97.4394C230.176 96.9916 230.122 96.3695 229.709 95.9716L223.14 89.7244C222.731 89.3374 222.108 89.3086 221.677 89.6485L216.91 93.4296C215.538 92.9016 214.095 92.536 212.606 92.3731L210.091 86.8547C209.843 86.3729 209.279 86.1024 208.735 86.2627L200.043 88.8284C199.499 88.9887 199.173 89.5222 199.236 90.0586L200.121 96.058C198.959 97.0034 197.943 98.083 197.08 99.2826L191.024 98.6957C190.481 98.6553 189.971 99.0067 189.837 99.5541L187.713 108.367C187.579 108.914 187.872 109.466 188.384 109.681L194.031 111.924C194.149 112.645 194.293 113.371 194.504 114.088C194.716 114.805 194.99 115.492 195.282 116.162L191.758 121.112C191.441 121.559 191.495 122.182 191.908 122.579L198.477 128.827C198.886 129.214 199.509 129.242 199.94 128.903L204.707 125.121C206.079 125.649 207.522 126.015 209.011 126.178L211.526 131.696C211.763 132.181 212.328 132.452 212.871 132.292L221.564 129.726C222.107 129.566 222.434 129.032 222.37 128.496L221.485 122.496C222.647 121.551 223.663 120.471 224.526 119.272L230.582 119.859C231.125 119.899 231.636 119.548 231.769 119L233.893 110.187C234.027 109.64 233.734 109.088 233.222 108.873L227.575 106.63ZM213.048 116.883C208.843 118.124 204.438 115.727 203.197 111.522C201.956 107.317 204.353 102.912 208.558 101.671C212.763 100.43 217.168 102.827 218.409 107.032C219.65 111.237 217.253 115.642 213.048 116.883Z" fill="#1A759F"/>
<path d="M207.936 75.5734C208.018 75.0928 208.086 74.6039 208.108 74.1054C208.131 73.607 208.108 73.114 208.069 72.6279L211.378 70.273C211.675 70.0594 211.776 69.6553 211.603 69.3145L208.819 63.9434C208.645 63.6101 208.259 63.4564 207.913 63.5769L204.082 64.9243C203.332 64.2923 202.501 63.7476 201.597 63.3206L201.212 59.292C201.16 58.934 200.864 58.6405 200.486 58.6233L194.444 58.3492C194.066 58.3321 193.744 58.5974 193.667 58.9497L192.919 62.9268C191.98 63.2702 191.104 63.73 190.299 64.2989L186.607 62.6101C186.273 62.4663 185.874 62.5769 185.671 62.8931L182.412 67.9899C182.208 68.3061 182.273 68.7177 182.549 68.9649L185.623 71.6094C185.541 72.09 185.473 72.5789 185.451 73.0774C185.428 73.5758 185.451 74.0688 185.49 74.5549L182.189 76.9102C181.892 77.1238 181.79 77.5278 181.964 77.8687L184.747 83.2397C184.921 83.573 185.308 83.7268 185.654 83.6063L189.484 82.2589C190.235 82.8908 191.065 83.4356 191.969 83.8626L192.354 87.8911C192.398 88.2488 192.695 88.5423 193.073 88.5595L199.115 88.8336C199.493 88.8508 199.815 88.5854 199.892 88.2331L200.64 84.256C201.579 83.9126 202.455 83.4529 203.26 82.8839L206.952 84.5727C207.286 84.7165 207.685 84.6059 207.888 84.2897L211.147 79.1929C211.35 78.8767 211.286 78.4651 211.01 78.2179L207.936 75.5734ZM196.54 78.8782C193.617 78.7456 191.36 76.2744 191.493 73.3515C191.625 70.4287 194.097 68.172 197.019 68.3046C199.942 68.4372 202.199 70.9084 202.066 73.8313C201.934 76.7541 199.462 79.0108 196.54 78.8782Z" fill="#184E77"/>
<path d="M231.891 80.5438C232.066 80.2797 232.235 80.0069 232.38 79.7165C232.524 79.4261 232.64 79.1269 232.745 78.8278L235.332 78.2983C235.565 78.2495 235.732 78.036 235.718 77.7877L235.476 73.862C235.461 73.6181 235.271 73.4249 235.034 73.4055L232.402 73.1987C232.122 72.6255 231.772 72.0831 231.347 71.5913L232.178 69.095C232.241 68.8685 232.142 68.6159 231.922 68.5063L228.402 66.7534C228.182 66.6439 227.921 66.7168 227.783 66.9061L226.291 69.0737C225.643 69.0308 225.001 69.0736 224.372 69.1999L222.622 67.2243C222.461 67.0509 222.195 67.0118 221.991 67.1462L218.712 69.3189C218.508 69.4534 218.438 69.7151 218.537 69.9347L219.669 72.3158C219.493 72.5798 219.325 72.8527 219.18 73.1431C219.035 73.4335 218.919 73.7326 218.814 74.0318L216.232 74.5635C215.999 74.6122 215.833 74.8257 215.846 75.0741L216.088 78.9997C216.103 79.2437 216.293 79.4368 216.53 79.4562L219.162 79.663C219.442 80.2363 219.792 80.7787 220.217 81.2704L219.386 83.7667C219.318 83.9911 219.418 84.2437 219.638 84.3532L223.158 86.1062C223.378 86.2157 223.639 86.1427 223.777 85.9535L225.269 83.7858C225.917 83.8288 226.559 83.786 227.187 83.6596L228.938 85.6352C229.099 85.8086 229.365 85.8478 229.569 85.7133L232.848 83.5406C233.052 83.4062 233.122 83.1445 233.022 82.9248L231.891 80.5438ZM224.246 79.5098C222.543 78.6618 221.852 76.5988 222.7 74.896C223.548 73.1932 225.611 72.5018 227.314 73.3498C229.016 74.1978 229.708 76.2608 228.86 77.9636C228.012 79.6664 225.949 80.3577 224.246 79.5098Z" fill="#34A0A4"/>
<path d="M33.4637 33.7795V20L90.6799 38.5153C96.1218 40.2763 101.221 42.958 105.756 46.4437L127.774 63.367L109.217 52.1415C104.303 49.1685 98.9127 47.0646 93.2837 45.922L33.4637 33.7795Z" fill="#1A759F"/>
<path d="M222.084 33.7796V20L164.868 38.5153C159.426 40.2764 154.326 42.9581 149.791 46.4438L127.774 63.3671L146.33 52.1416C151.245 49.1686 156.635 47.0646 162.264 45.922L222.084 33.7796Z" fill="#1A759F"/>
<rect x="46.4082" y="107.749" width="16.643" height="16.643" fill="#18639A"/>
<rect x="66.7496" y="89.2563" width="12.9445" height="12.9445" fill="#18639A"/>
<rect x="13.1223" y="78.1609" width="12.9445" height="12.9445" fill="#18639A"/>
<rect x="24.2176" y="67.0657" width="5.54766" height="5.54766" fill="#18639A"/>
<rect x="10" y="64" width="11.0953" height="11.0953" fill="#18639A"/>
<path d="M111.506 157.938C107.819 157.938 105.975 157.521 105.975 156.688L104.67 131.625L97.0874 157C96.9217 157.5 95.5129 157.75 92.8612 157.75C90.2095 157.75 88.8422 157.521 88.7593 157.062L80.9284 131.375L80.0583 156.313C80.0169 156.938 79.2297 157.375 77.6966 157.625C76.1636 157.833 74.8792 157.938 73.8434 157.938C72.849 157.938 71.8753 157.875 70.9223 157.75C68.9335 157.458 67.9598 156.938 68.0013 156.188L69.4307 115.562C69.4307 114.562 71.9581 114.062 77.013 114.062C78.5046 114.062 80.3277 114.187 82.4822 114.437C84.6367 114.646 85.8383 115.083 86.0869 115.75L93.0477 135.438L99.1383 115.688C99.5112 114.604 102.37 114.062 107.715 114.062C109.248 114.062 111.071 114.187 113.184 114.437C115.339 114.646 116.416 115.042 116.416 115.625L118.218 156.625C118.218 157.083 117.41 157.417 115.795 157.625C114.179 157.833 112.749 157.938 111.506 157.938Z" fill="white"/>
<path d="M123.764 154.188V115.312C123.764 114.437 125.856 114 130.041 114C134.267 114 136.38 114.437 136.38 115.312V145.938H145.951C146.697 145.938 147.215 146.917 147.505 148.875C147.629 149.833 147.691 150.813 147.691 151.813C147.691 152.813 147.629 153.833 147.505 154.875C147.174 156.875 146.635 157.875 145.889 157.875H126.747C125.835 157.875 125.11 157.5 124.572 156.75C124.033 156 123.764 155.146 123.764 154.188Z" fill="white"/>
<path d="M180.604 158C176.999 158 175.052 157.417 174.762 156.25L172.711 148.188H162.829L161.027 155.938C160.778 157.229 158.79 157.875 155.061 157.875C153.072 157.875 151.601 157.771 150.648 157.563C149.695 157.313 149.218 157.125 149.218 157L160.219 114.687C160.219 114.354 163.057 114.187 168.734 114.187C174.41 114.187 177.248 114.354 177.248 114.687L188 157.062C188 157.354 187.047 157.583 185.141 157.75C183.235 157.917 181.723 158 180.604 158ZM164.383 140.25H170.909L168.112 127.313H167.739L164.383 140.25Z" fill="white"/>
</svg>
